%TF.GenerationSoftware,KiCad,Pcbnew,7.0.10*%
%TF.CreationDate,2024-02-17T15:34:22+01:00*%
%TF.ProjectId,minigame,6d696e69-6761-46d6-952e-6b696361645f,1.0*%
%TF.SameCoordinates,Original*%
%TF.FileFunction,Drillmap*%
%TF.FilePolarity,Positive*%
%FSLAX45Y45*%
G04 Gerber Fmt 4.5, Leading zero omitted, Abs format (unit mm)*
G04 Created by KiCad (PCBNEW 7.0.10) date 2024-02-17 15:34:22*
%MOMM*%
%LPD*%
G01*
G04 APERTURE LIST*
%ADD10C,0.100000*%
%ADD11C,0.200000*%
%ADD12C,0.130000*%
%ADD13C,0.300000*%
G04 APERTURE END LIST*
D10*
X18169338Y-15037998D02*
G75*
G03*
X18469338Y-14738000I2J299998D01*
G01*
X18469338Y-5337845D02*
X18469338Y-14738000D01*
X8468640Y-14738000D02*
G75*
G03*
X8768642Y-15038000I300000J0D01*
G01*
X8468642Y-14738000D02*
X8468642Y-5337845D01*
X18169338Y-15038000D02*
X8768642Y-15038000D01*
X8768642Y-5037845D02*
G75*
G03*
X8468642Y-5337845I0J-300000D01*
G01*
X18469335Y-5337845D02*
G75*
G03*
X18169338Y-5037845I-299995J5D01*
G01*
X8768642Y-5037845D02*
X18169338Y-5037845D01*
D11*
D10*
X9135000Y-7570000D02*
X9235000Y-7670000D01*
X9235000Y-7570000D02*
X9135000Y-7670000D01*
X9135000Y-7824000D02*
X9235000Y-7924000D01*
X9235000Y-7824000D02*
X9135000Y-7924000D01*
X9135000Y-8078000D02*
X9235000Y-8178000D01*
X9235000Y-8078000D02*
X9135000Y-8178000D01*
X9135000Y-8332000D02*
X9235000Y-8432000D01*
X9235000Y-8332000D02*
X9135000Y-8432000D01*
X10974000Y-5284000D02*
X11074000Y-5384000D01*
X11074000Y-5284000D02*
X10974000Y-5384000D01*
X11228000Y-5284000D02*
X11328000Y-5384000D01*
X11328000Y-5284000D02*
X11228000Y-5384000D01*
X11482000Y-5284000D02*
X11582000Y-5384000D01*
X11582000Y-5284000D02*
X11482000Y-5384000D01*
X11736000Y-5284000D02*
X11836000Y-5384000D01*
X11836000Y-5284000D02*
X11736000Y-5384000D01*
X11888000Y-10110000D02*
X11988000Y-10210000D01*
X11988000Y-10110000D02*
X11888000Y-10210000D01*
X11990000Y-5284000D02*
X12090000Y-5384000D01*
X12090000Y-5284000D02*
X11990000Y-5384000D01*
X12142000Y-10110000D02*
X12242000Y-10210000D01*
X12242000Y-10110000D02*
X12142000Y-10210000D01*
X12244000Y-5284000D02*
X12344000Y-5384000D01*
X12344000Y-5284000D02*
X12244000Y-5384000D01*
X12396000Y-10110000D02*
X12496000Y-10210000D01*
X12496000Y-10110000D02*
X12396000Y-10210000D01*
X12498000Y-5284000D02*
X12598000Y-5384000D01*
X12598000Y-5284000D02*
X12498000Y-5384000D01*
X12650000Y-10110000D02*
X12750000Y-10210000D01*
X12750000Y-10110000D02*
X12650000Y-10210000D01*
X12752000Y-5284000D02*
X12852000Y-5384000D01*
X12852000Y-5284000D02*
X12752000Y-5384000D01*
X12904000Y-10110000D02*
X13004000Y-10210000D01*
X13004000Y-10110000D02*
X12904000Y-10210000D01*
X13006000Y-5284000D02*
X13106000Y-5384000D01*
X13106000Y-5284000D02*
X13006000Y-5384000D01*
X13158000Y-10110000D02*
X13258000Y-10210000D01*
X13258000Y-10110000D02*
X13158000Y-10210000D01*
X13260000Y-5284000D02*
X13360000Y-5384000D01*
X13360000Y-5284000D02*
X13260000Y-5384000D01*
X13412000Y-10110000D02*
X13512000Y-10210000D01*
X13512000Y-10110000D02*
X13412000Y-10210000D01*
X13666000Y-5284000D02*
X13766000Y-5384000D01*
X13766000Y-5284000D02*
X13666000Y-5384000D01*
X13666000Y-10110000D02*
X13766000Y-10210000D01*
X13766000Y-10110000D02*
X13666000Y-10210000D01*
X13920000Y-5284000D02*
X14020000Y-5384000D01*
X14020000Y-5284000D02*
X13920000Y-5384000D01*
X14174000Y-5284000D02*
X14274000Y-5384000D01*
X14274000Y-5284000D02*
X14174000Y-5384000D01*
X14174000Y-10110000D02*
X14274000Y-10210000D01*
X14274000Y-10110000D02*
X14174000Y-10210000D01*
X14428000Y-5284000D02*
X14528000Y-5384000D01*
X14528000Y-5284000D02*
X14428000Y-5384000D01*
X14428000Y-10110000D02*
X14528000Y-10210000D01*
X14528000Y-10110000D02*
X14428000Y-10210000D01*
X14682000Y-5284000D02*
X14782000Y-5384000D01*
X14782000Y-5284000D02*
X14682000Y-5384000D01*
X14682000Y-10110000D02*
X14782000Y-10210000D01*
X14782000Y-10110000D02*
X14682000Y-10210000D01*
X14936000Y-5284000D02*
X15036000Y-5384000D01*
X15036000Y-5284000D02*
X14936000Y-5384000D01*
X14936000Y-10110000D02*
X15036000Y-10210000D01*
X15036000Y-10110000D02*
X14936000Y-10210000D01*
X15190000Y-5284000D02*
X15290000Y-5384000D01*
X15290000Y-5284000D02*
X15190000Y-5384000D01*
X15190000Y-10110000D02*
X15290000Y-10210000D01*
X15290000Y-10110000D02*
X15190000Y-10210000D01*
X15444000Y-5284000D02*
X15544000Y-5384000D01*
X15544000Y-5284000D02*
X15444000Y-5384000D01*
X15444000Y-10110000D02*
X15544000Y-10210000D01*
X15544000Y-10110000D02*
X15444000Y-10210000D01*
D12*
X9601000Y-11688000D02*
G75*
G03*
X9471000Y-11688000I-65000J0D01*
G01*
X9471000Y-11688000D02*
G75*
G03*
X9601000Y-11688000I65000J0D01*
G01*
X9601000Y-12188000D02*
G75*
G03*
X9471000Y-12188000I-65000J0D01*
G01*
X9471000Y-12188000D02*
G75*
G03*
X9601000Y-12188000I65000J0D01*
G01*
X9601000Y-13466000D02*
G75*
G03*
X9471000Y-13466000I-65000J0D01*
G01*
X9471000Y-13466000D02*
G75*
G03*
X9601000Y-13466000I65000J0D01*
G01*
X9601000Y-13966000D02*
G75*
G03*
X9471000Y-13966000I-65000J0D01*
G01*
X9471000Y-13966000D02*
G75*
G03*
X9601000Y-13966000I65000J0D01*
G01*
X10851000Y-11688000D02*
G75*
G03*
X10721000Y-11688000I-65000J0D01*
G01*
X10721000Y-11688000D02*
G75*
G03*
X10851000Y-11688000I65000J0D01*
G01*
X10851000Y-12188000D02*
G75*
G03*
X10721000Y-12188000I-65000J0D01*
G01*
X10721000Y-12188000D02*
G75*
G03*
X10851000Y-12188000I65000J0D01*
G01*
X10851000Y-13466000D02*
G75*
G03*
X10721000Y-13466000I-65000J0D01*
G01*
X10721000Y-13466000D02*
G75*
G03*
X10851000Y-13466000I65000J0D01*
G01*
X10851000Y-13966000D02*
G75*
G03*
X10721000Y-13966000I-65000J0D01*
G01*
X10721000Y-13966000D02*
G75*
G03*
X10851000Y-13966000I65000J0D01*
G01*
X13556400Y-12048600D02*
G75*
G03*
X13426400Y-12048600I-65000J0D01*
G01*
X13426400Y-12048600D02*
G75*
G03*
X13556400Y-12048600I65000J0D01*
G01*
X13556400Y-13298600D02*
G75*
G03*
X13426400Y-13298600I-65000J0D01*
G01*
X13426400Y-13298600D02*
G75*
G03*
X13556400Y-13298600I65000J0D01*
G01*
X14056400Y-12048600D02*
G75*
G03*
X13926400Y-12048600I-65000J0D01*
G01*
X13926400Y-12048600D02*
G75*
G03*
X14056400Y-12048600I65000J0D01*
G01*
X14056400Y-13298600D02*
G75*
G03*
X13926400Y-13298600I-65000J0D01*
G01*
X13926400Y-13298600D02*
G75*
G03*
X14056400Y-13298600I65000J0D01*
G01*
X15131200Y-10905600D02*
G75*
G03*
X15001200Y-10905600I-65000J0D01*
G01*
X15001200Y-10905600D02*
G75*
G03*
X15131200Y-10905600I65000J0D01*
G01*
X15131200Y-12155600D02*
G75*
G03*
X15001200Y-12155600I-65000J0D01*
G01*
X15001200Y-12155600D02*
G75*
G03*
X15131200Y-12155600I65000J0D01*
G01*
X15131200Y-13090000D02*
G75*
G03*
X15001200Y-13090000I-65000J0D01*
G01*
X15001200Y-13090000D02*
G75*
G03*
X15131200Y-13090000I65000J0D01*
G01*
X15131200Y-14340000D02*
G75*
G03*
X15001200Y-14340000I-65000J0D01*
G01*
X15001200Y-14340000D02*
G75*
G03*
X15131200Y-14340000I65000J0D01*
G01*
X15631200Y-10905600D02*
G75*
G03*
X15501200Y-10905600I-65000J0D01*
G01*
X15501200Y-10905600D02*
G75*
G03*
X15631200Y-10905600I65000J0D01*
G01*
X15631200Y-12155600D02*
G75*
G03*
X15501200Y-12155600I-65000J0D01*
G01*
X15501200Y-12155600D02*
G75*
G03*
X15631200Y-12155600I65000J0D01*
G01*
X15631200Y-13090000D02*
G75*
G03*
X15501200Y-13090000I-65000J0D01*
G01*
X15501200Y-13090000D02*
G75*
G03*
X15631200Y-13090000I65000J0D01*
G01*
X15631200Y-14340000D02*
G75*
G03*
X15501200Y-14340000I-65000J0D01*
G01*
X15501200Y-14340000D02*
G75*
G03*
X15631200Y-14340000I65000J0D01*
G01*
X16731400Y-12023200D02*
G75*
G03*
X16601400Y-12023200I-65000J0D01*
G01*
X16601400Y-12023200D02*
G75*
G03*
X16731400Y-12023200I65000J0D01*
G01*
X16731400Y-13273200D02*
G75*
G03*
X16601400Y-13273200I-65000J0D01*
G01*
X16601400Y-13273200D02*
G75*
G03*
X16731400Y-13273200I65000J0D01*
G01*
X17231400Y-12023200D02*
G75*
G03*
X17101400Y-12023200I-65000J0D01*
G01*
X17101400Y-12023200D02*
G75*
G03*
X17231400Y-12023200I65000J0D01*
G01*
X17231400Y-13273200D02*
G75*
G03*
X17101400Y-13273200I-65000J0D01*
G01*
X17101400Y-13273200D02*
G75*
G03*
X17231400Y-13273200I65000J0D01*
G01*
D13*
X8801476Y-5219109D02*
X8801476Y-5519109D01*
X8651476Y-5369109D02*
X8951476Y-5369109D01*
X8802600Y-14553040D02*
X8802600Y-14853040D01*
X8652600Y-14703040D02*
X8952600Y-14703040D01*
X18134723Y-14553097D02*
X18134723Y-14853097D01*
X17984723Y-14703097D02*
X18284723Y-14703097D01*
X18136771Y-5221820D02*
X18136771Y-5521820D01*
X17986771Y-5371820D02*
X18286771Y-5371820D01*
D11*
X8724419Y-15354484D02*
X8724419Y-15154484D01*
X8724419Y-15154484D02*
X8772038Y-15154484D01*
X8772038Y-15154484D02*
X8800609Y-15164008D01*
X8800609Y-15164008D02*
X8819657Y-15183055D01*
X8819657Y-15183055D02*
X8829181Y-15202103D01*
X8829181Y-15202103D02*
X8838704Y-15240198D01*
X8838704Y-15240198D02*
X8838704Y-15268770D01*
X8838704Y-15268770D02*
X8829181Y-15306865D01*
X8829181Y-15306865D02*
X8819657Y-15325913D01*
X8819657Y-15325913D02*
X8800609Y-15344960D01*
X8800609Y-15344960D02*
X8772038Y-15354484D01*
X8772038Y-15354484D02*
X8724419Y-15354484D01*
X8924419Y-15354484D02*
X8924419Y-15221151D01*
X8924419Y-15259246D02*
X8933942Y-15240198D01*
X8933942Y-15240198D02*
X8943466Y-15230674D01*
X8943466Y-15230674D02*
X8962514Y-15221151D01*
X8962514Y-15221151D02*
X8981562Y-15221151D01*
X9048228Y-15354484D02*
X9048228Y-15221151D01*
X9048228Y-15154484D02*
X9038704Y-15164008D01*
X9038704Y-15164008D02*
X9048228Y-15173532D01*
X9048228Y-15173532D02*
X9057752Y-15164008D01*
X9057752Y-15164008D02*
X9048228Y-15154484D01*
X9048228Y-15154484D02*
X9048228Y-15173532D01*
X9172038Y-15354484D02*
X9152990Y-15344960D01*
X9152990Y-15344960D02*
X9143466Y-15325913D01*
X9143466Y-15325913D02*
X9143466Y-15154484D01*
X9276800Y-15354484D02*
X9257752Y-15344960D01*
X9257752Y-15344960D02*
X9248228Y-15325913D01*
X9248228Y-15325913D02*
X9248228Y-15154484D01*
X9505371Y-15354484D02*
X9505371Y-15154484D01*
X9505371Y-15154484D02*
X9572038Y-15297341D01*
X9572038Y-15297341D02*
X9638704Y-15154484D01*
X9638704Y-15154484D02*
X9638704Y-15354484D01*
X9819657Y-15354484D02*
X9819657Y-15249722D01*
X9819657Y-15249722D02*
X9810133Y-15230674D01*
X9810133Y-15230674D02*
X9791085Y-15221151D01*
X9791085Y-15221151D02*
X9752990Y-15221151D01*
X9752990Y-15221151D02*
X9733942Y-15230674D01*
X9819657Y-15344960D02*
X9800609Y-15354484D01*
X9800609Y-15354484D02*
X9752990Y-15354484D01*
X9752990Y-15354484D02*
X9733942Y-15344960D01*
X9733942Y-15344960D02*
X9724419Y-15325913D01*
X9724419Y-15325913D02*
X9724419Y-15306865D01*
X9724419Y-15306865D02*
X9733942Y-15287817D01*
X9733942Y-15287817D02*
X9752990Y-15278294D01*
X9752990Y-15278294D02*
X9800609Y-15278294D01*
X9800609Y-15278294D02*
X9819657Y-15268770D01*
X9914895Y-15221151D02*
X9914895Y-15421151D01*
X9914895Y-15230674D02*
X9933942Y-15221151D01*
X9933942Y-15221151D02*
X9972038Y-15221151D01*
X9972038Y-15221151D02*
X9991085Y-15230674D01*
X9991085Y-15230674D02*
X10000609Y-15240198D01*
X10000609Y-15240198D02*
X10010133Y-15259246D01*
X10010133Y-15259246D02*
X10010133Y-15316389D01*
X10010133Y-15316389D02*
X10000609Y-15335436D01*
X10000609Y-15335436D02*
X9991085Y-15344960D01*
X9991085Y-15344960D02*
X9972038Y-15354484D01*
X9972038Y-15354484D02*
X9933942Y-15354484D01*
X9933942Y-15354484D02*
X9914895Y-15344960D01*
X10095847Y-15335436D02*
X10105371Y-15344960D01*
X10105371Y-15344960D02*
X10095847Y-15354484D01*
X10095847Y-15354484D02*
X10086323Y-15344960D01*
X10086323Y-15344960D02*
X10095847Y-15335436D01*
X10095847Y-15335436D02*
X10095847Y-15354484D01*
X10095847Y-15230674D02*
X10105371Y-15240198D01*
X10105371Y-15240198D02*
X10095847Y-15249722D01*
X10095847Y-15249722D02*
X10086323Y-15240198D01*
X10086323Y-15240198D02*
X10095847Y-15230674D01*
X10095847Y-15230674D02*
X10095847Y-15249722D01*
D10*
X8363642Y-15633000D02*
X8463642Y-15733000D01*
X8463642Y-15633000D02*
X8363642Y-15733000D01*
D11*
X8829181Y-15774484D02*
X8714895Y-15774484D01*
X8772038Y-15774484D02*
X8772038Y-15574484D01*
X8772038Y-15574484D02*
X8752990Y-15603055D01*
X8752990Y-15603055D02*
X8733942Y-15622103D01*
X8733942Y-15622103D02*
X8714895Y-15631627D01*
X8914895Y-15755436D02*
X8924419Y-15764960D01*
X8924419Y-15764960D02*
X8914895Y-15774484D01*
X8914895Y-15774484D02*
X8905371Y-15764960D01*
X8905371Y-15764960D02*
X8914895Y-15755436D01*
X8914895Y-15755436D02*
X8914895Y-15774484D01*
X9048228Y-15574484D02*
X9067276Y-15574484D01*
X9067276Y-15574484D02*
X9086323Y-15584008D01*
X9086323Y-15584008D02*
X9095847Y-15593532D01*
X9095847Y-15593532D02*
X9105371Y-15612579D01*
X9105371Y-15612579D02*
X9114895Y-15650674D01*
X9114895Y-15650674D02*
X9114895Y-15698294D01*
X9114895Y-15698294D02*
X9105371Y-15736389D01*
X9105371Y-15736389D02*
X9095847Y-15755436D01*
X9095847Y-15755436D02*
X9086323Y-15764960D01*
X9086323Y-15764960D02*
X9067276Y-15774484D01*
X9067276Y-15774484D02*
X9048228Y-15774484D01*
X9048228Y-15774484D02*
X9029181Y-15764960D01*
X9029181Y-15764960D02*
X9019657Y-15755436D01*
X9019657Y-15755436D02*
X9010133Y-15736389D01*
X9010133Y-15736389D02*
X9000609Y-15698294D01*
X9000609Y-15698294D02*
X9000609Y-15650674D01*
X9000609Y-15650674D02*
X9010133Y-15612579D01*
X9010133Y-15612579D02*
X9019657Y-15593532D01*
X9019657Y-15593532D02*
X9029181Y-15584008D01*
X9029181Y-15584008D02*
X9048228Y-15574484D01*
X9238704Y-15574484D02*
X9257752Y-15574484D01*
X9257752Y-15574484D02*
X9276800Y-15584008D01*
X9276800Y-15584008D02*
X9286323Y-15593532D01*
X9286323Y-15593532D02*
X9295847Y-15612579D01*
X9295847Y-15612579D02*
X9305371Y-15650674D01*
X9305371Y-15650674D02*
X9305371Y-15698294D01*
X9305371Y-15698294D02*
X9295847Y-15736389D01*
X9295847Y-15736389D02*
X9286323Y-15755436D01*
X9286323Y-15755436D02*
X9276800Y-15764960D01*
X9276800Y-15764960D02*
X9257752Y-15774484D01*
X9257752Y-15774484D02*
X9238704Y-15774484D01*
X9238704Y-15774484D02*
X9219657Y-15764960D01*
X9219657Y-15764960D02*
X9210133Y-15755436D01*
X9210133Y-15755436D02*
X9200609Y-15736389D01*
X9200609Y-15736389D02*
X9191085Y-15698294D01*
X9191085Y-15698294D02*
X9191085Y-15650674D01*
X9191085Y-15650674D02*
X9200609Y-15612579D01*
X9200609Y-15612579D02*
X9210133Y-15593532D01*
X9210133Y-15593532D02*
X9219657Y-15584008D01*
X9219657Y-15584008D02*
X9238704Y-15574484D01*
X9429181Y-15574484D02*
X9448228Y-15574484D01*
X9448228Y-15574484D02*
X9467276Y-15584008D01*
X9467276Y-15584008D02*
X9476800Y-15593532D01*
X9476800Y-15593532D02*
X9486323Y-15612579D01*
X9486323Y-15612579D02*
X9495847Y-15650674D01*
X9495847Y-15650674D02*
X9495847Y-15698294D01*
X9495847Y-15698294D02*
X9486323Y-15736389D01*
X9486323Y-15736389D02*
X9476800Y-15755436D01*
X9476800Y-15755436D02*
X9467276Y-15764960D01*
X9467276Y-15764960D02*
X9448228Y-15774484D01*
X9448228Y-15774484D02*
X9429181Y-15774484D01*
X9429181Y-15774484D02*
X9410133Y-15764960D01*
X9410133Y-15764960D02*
X9400609Y-15755436D01*
X9400609Y-15755436D02*
X9391085Y-15736389D01*
X9391085Y-15736389D02*
X9381562Y-15698294D01*
X9381562Y-15698294D02*
X9381562Y-15650674D01*
X9381562Y-15650674D02*
X9391085Y-15612579D01*
X9391085Y-15612579D02*
X9400609Y-15593532D01*
X9400609Y-15593532D02*
X9410133Y-15584008D01*
X9410133Y-15584008D02*
X9429181Y-15574484D01*
X9581562Y-15774484D02*
X9581562Y-15641151D01*
X9581562Y-15660198D02*
X9591085Y-15650674D01*
X9591085Y-15650674D02*
X9610133Y-15641151D01*
X9610133Y-15641151D02*
X9638704Y-15641151D01*
X9638704Y-15641151D02*
X9657752Y-15650674D01*
X9657752Y-15650674D02*
X9667276Y-15669722D01*
X9667276Y-15669722D02*
X9667276Y-15774484D01*
X9667276Y-15669722D02*
X9676800Y-15650674D01*
X9676800Y-15650674D02*
X9695847Y-15641151D01*
X9695847Y-15641151D02*
X9724419Y-15641151D01*
X9724419Y-15641151D02*
X9743466Y-15650674D01*
X9743466Y-15650674D02*
X9752990Y-15669722D01*
X9752990Y-15669722D02*
X9752990Y-15774484D01*
X9848228Y-15774484D02*
X9848228Y-15641151D01*
X9848228Y-15660198D02*
X9857752Y-15650674D01*
X9857752Y-15650674D02*
X9876800Y-15641151D01*
X9876800Y-15641151D02*
X9905371Y-15641151D01*
X9905371Y-15641151D02*
X9924419Y-15650674D01*
X9924419Y-15650674D02*
X9933943Y-15669722D01*
X9933943Y-15669722D02*
X9933943Y-15774484D01*
X9933943Y-15669722D02*
X9943466Y-15650674D01*
X9943466Y-15650674D02*
X9962514Y-15641151D01*
X9962514Y-15641151D02*
X9991085Y-15641151D01*
X9991085Y-15641151D02*
X10010133Y-15650674D01*
X10010133Y-15650674D02*
X10019657Y-15669722D01*
X10019657Y-15669722D02*
X10019657Y-15774484D01*
X10410133Y-15564960D02*
X10238705Y-15822103D01*
X10667276Y-15574484D02*
X10686324Y-15574484D01*
X10686324Y-15574484D02*
X10705371Y-15584008D01*
X10705371Y-15584008D02*
X10714895Y-15593532D01*
X10714895Y-15593532D02*
X10724419Y-15612579D01*
X10724419Y-15612579D02*
X10733943Y-15650674D01*
X10733943Y-15650674D02*
X10733943Y-15698294D01*
X10733943Y-15698294D02*
X10724419Y-15736389D01*
X10724419Y-15736389D02*
X10714895Y-15755436D01*
X10714895Y-15755436D02*
X10705371Y-15764960D01*
X10705371Y-15764960D02*
X10686324Y-15774484D01*
X10686324Y-15774484D02*
X10667276Y-15774484D01*
X10667276Y-15774484D02*
X10648228Y-15764960D01*
X10648228Y-15764960D02*
X10638705Y-15755436D01*
X10638705Y-15755436D02*
X10629181Y-15736389D01*
X10629181Y-15736389D02*
X10619657Y-15698294D01*
X10619657Y-15698294D02*
X10619657Y-15650674D01*
X10619657Y-15650674D02*
X10629181Y-15612579D01*
X10629181Y-15612579D02*
X10638705Y-15593532D01*
X10638705Y-15593532D02*
X10648228Y-15584008D01*
X10648228Y-15584008D02*
X10667276Y-15574484D01*
X10819657Y-15755436D02*
X10829181Y-15764960D01*
X10829181Y-15764960D02*
X10819657Y-15774484D01*
X10819657Y-15774484D02*
X10810133Y-15764960D01*
X10810133Y-15764960D02*
X10819657Y-15755436D01*
X10819657Y-15755436D02*
X10819657Y-15774484D01*
X10952990Y-15574484D02*
X10972038Y-15574484D01*
X10972038Y-15574484D02*
X10991086Y-15584008D01*
X10991086Y-15584008D02*
X11000609Y-15593532D01*
X11000609Y-15593532D02*
X11010133Y-15612579D01*
X11010133Y-15612579D02*
X11019657Y-15650674D01*
X11019657Y-15650674D02*
X11019657Y-15698294D01*
X11019657Y-15698294D02*
X11010133Y-15736389D01*
X11010133Y-15736389D02*
X11000609Y-15755436D01*
X11000609Y-15755436D02*
X10991086Y-15764960D01*
X10991086Y-15764960D02*
X10972038Y-15774484D01*
X10972038Y-15774484D02*
X10952990Y-15774484D01*
X10952990Y-15774484D02*
X10933943Y-15764960D01*
X10933943Y-15764960D02*
X10924419Y-15755436D01*
X10924419Y-15755436D02*
X10914895Y-15736389D01*
X10914895Y-15736389D02*
X10905371Y-15698294D01*
X10905371Y-15698294D02*
X10905371Y-15650674D01*
X10905371Y-15650674D02*
X10914895Y-15612579D01*
X10914895Y-15612579D02*
X10924419Y-15593532D01*
X10924419Y-15593532D02*
X10933943Y-15584008D01*
X10933943Y-15584008D02*
X10952990Y-15574484D01*
X11086324Y-15574484D02*
X11210133Y-15574484D01*
X11210133Y-15574484D02*
X11143466Y-15650674D01*
X11143466Y-15650674D02*
X11172038Y-15650674D01*
X11172038Y-15650674D02*
X11191085Y-15660198D01*
X11191085Y-15660198D02*
X11200609Y-15669722D01*
X11200609Y-15669722D02*
X11210133Y-15688770D01*
X11210133Y-15688770D02*
X11210133Y-15736389D01*
X11210133Y-15736389D02*
X11200609Y-15755436D01*
X11200609Y-15755436D02*
X11191085Y-15764960D01*
X11191085Y-15764960D02*
X11172038Y-15774484D01*
X11172038Y-15774484D02*
X11114895Y-15774484D01*
X11114895Y-15774484D02*
X11095847Y-15764960D01*
X11095847Y-15764960D02*
X11086324Y-15755436D01*
X11305371Y-15774484D02*
X11343466Y-15774484D01*
X11343466Y-15774484D02*
X11362514Y-15764960D01*
X11362514Y-15764960D02*
X11372038Y-15755436D01*
X11372038Y-15755436D02*
X11391085Y-15726865D01*
X11391085Y-15726865D02*
X11400609Y-15688770D01*
X11400609Y-15688770D02*
X11400609Y-15612579D01*
X11400609Y-15612579D02*
X11391085Y-15593532D01*
X11391085Y-15593532D02*
X11381562Y-15584008D01*
X11381562Y-15584008D02*
X11362514Y-15574484D01*
X11362514Y-15574484D02*
X11324419Y-15574484D01*
X11324419Y-15574484D02*
X11305371Y-15584008D01*
X11305371Y-15584008D02*
X11295847Y-15593532D01*
X11295847Y-15593532D02*
X11286324Y-15612579D01*
X11286324Y-15612579D02*
X11286324Y-15660198D01*
X11286324Y-15660198D02*
X11295847Y-15679246D01*
X11295847Y-15679246D02*
X11305371Y-15688770D01*
X11305371Y-15688770D02*
X11324419Y-15698294D01*
X11324419Y-15698294D02*
X11362514Y-15698294D01*
X11362514Y-15698294D02*
X11381562Y-15688770D01*
X11381562Y-15688770D02*
X11391085Y-15679246D01*
X11391085Y-15679246D02*
X11400609Y-15660198D01*
X11572038Y-15641151D02*
X11572038Y-15774484D01*
X11524419Y-15564960D02*
X11476800Y-15707817D01*
X11476800Y-15707817D02*
X11600609Y-15707817D01*
X11667276Y-15574484D02*
X11667276Y-15612579D01*
X11743466Y-15574484D02*
X11743466Y-15612579D01*
X12038705Y-15850674D02*
X12029181Y-15841151D01*
X12029181Y-15841151D02*
X12010133Y-15812579D01*
X12010133Y-15812579D02*
X12000609Y-15793532D01*
X12000609Y-15793532D02*
X11991086Y-15764960D01*
X11991086Y-15764960D02*
X11981562Y-15717341D01*
X11981562Y-15717341D02*
X11981562Y-15679246D01*
X11981562Y-15679246D02*
X11991086Y-15631627D01*
X11991086Y-15631627D02*
X12000609Y-15603055D01*
X12000609Y-15603055D02*
X12010133Y-15584008D01*
X12010133Y-15584008D02*
X12029181Y-15555436D01*
X12029181Y-15555436D02*
X12038705Y-15545913D01*
X12095847Y-15574484D02*
X12219657Y-15574484D01*
X12219657Y-15574484D02*
X12152990Y-15650674D01*
X12152990Y-15650674D02*
X12181562Y-15650674D01*
X12181562Y-15650674D02*
X12200609Y-15660198D01*
X12200609Y-15660198D02*
X12210133Y-15669722D01*
X12210133Y-15669722D02*
X12219657Y-15688770D01*
X12219657Y-15688770D02*
X12219657Y-15736389D01*
X12219657Y-15736389D02*
X12210133Y-15755436D01*
X12210133Y-15755436D02*
X12200609Y-15764960D01*
X12200609Y-15764960D02*
X12181562Y-15774484D01*
X12181562Y-15774484D02*
X12124419Y-15774484D01*
X12124419Y-15774484D02*
X12105371Y-15764960D01*
X12105371Y-15764960D02*
X12095847Y-15755436D01*
X12391086Y-15574484D02*
X12352990Y-15574484D01*
X12352990Y-15574484D02*
X12333943Y-15584008D01*
X12333943Y-15584008D02*
X12324419Y-15593532D01*
X12324419Y-15593532D02*
X12305371Y-15622103D01*
X12305371Y-15622103D02*
X12295847Y-15660198D01*
X12295847Y-15660198D02*
X12295847Y-15736389D01*
X12295847Y-15736389D02*
X12305371Y-15755436D01*
X12305371Y-15755436D02*
X12314895Y-15764960D01*
X12314895Y-15764960D02*
X12333943Y-15774484D01*
X12333943Y-15774484D02*
X12372038Y-15774484D01*
X12372038Y-15774484D02*
X12391086Y-15764960D01*
X12391086Y-15764960D02*
X12400609Y-15755436D01*
X12400609Y-15755436D02*
X12410133Y-15736389D01*
X12410133Y-15736389D02*
X12410133Y-15688770D01*
X12410133Y-15688770D02*
X12400609Y-15669722D01*
X12400609Y-15669722D02*
X12391086Y-15660198D01*
X12391086Y-15660198D02*
X12372038Y-15650674D01*
X12372038Y-15650674D02*
X12333943Y-15650674D01*
X12333943Y-15650674D02*
X12314895Y-15660198D01*
X12314895Y-15660198D02*
X12305371Y-15669722D01*
X12305371Y-15669722D02*
X12295847Y-15688770D01*
X12648228Y-15774484D02*
X12648228Y-15574484D01*
X12733943Y-15774484D02*
X12733943Y-15669722D01*
X12733943Y-15669722D02*
X12724419Y-15650674D01*
X12724419Y-15650674D02*
X12705371Y-15641151D01*
X12705371Y-15641151D02*
X12676800Y-15641151D01*
X12676800Y-15641151D02*
X12657752Y-15650674D01*
X12657752Y-15650674D02*
X12648228Y-15660198D01*
X12857752Y-15774484D02*
X12838705Y-15764960D01*
X12838705Y-15764960D02*
X12829181Y-15755436D01*
X12829181Y-15755436D02*
X12819657Y-15736389D01*
X12819657Y-15736389D02*
X12819657Y-15679246D01*
X12819657Y-15679246D02*
X12829181Y-15660198D01*
X12829181Y-15660198D02*
X12838705Y-15650674D01*
X12838705Y-15650674D02*
X12857752Y-15641151D01*
X12857752Y-15641151D02*
X12886324Y-15641151D01*
X12886324Y-15641151D02*
X12905371Y-15650674D01*
X12905371Y-15650674D02*
X12914895Y-15660198D01*
X12914895Y-15660198D02*
X12924419Y-15679246D01*
X12924419Y-15679246D02*
X12924419Y-15736389D01*
X12924419Y-15736389D02*
X12914895Y-15755436D01*
X12914895Y-15755436D02*
X12905371Y-15764960D01*
X12905371Y-15764960D02*
X12886324Y-15774484D01*
X12886324Y-15774484D02*
X12857752Y-15774484D01*
X13038705Y-15774484D02*
X13019657Y-15764960D01*
X13019657Y-15764960D02*
X13010133Y-15745913D01*
X13010133Y-15745913D02*
X13010133Y-15574484D01*
X13191086Y-15764960D02*
X13172038Y-15774484D01*
X13172038Y-15774484D02*
X13133943Y-15774484D01*
X13133943Y-15774484D02*
X13114895Y-15764960D01*
X13114895Y-15764960D02*
X13105371Y-15745913D01*
X13105371Y-15745913D02*
X13105371Y-15669722D01*
X13105371Y-15669722D02*
X13114895Y-15650674D01*
X13114895Y-15650674D02*
X13133943Y-15641151D01*
X13133943Y-15641151D02*
X13172038Y-15641151D01*
X13172038Y-15641151D02*
X13191086Y-15650674D01*
X13191086Y-15650674D02*
X13200609Y-15669722D01*
X13200609Y-15669722D02*
X13200609Y-15688770D01*
X13200609Y-15688770D02*
X13105371Y-15707817D01*
X13276800Y-15764960D02*
X13295848Y-15774484D01*
X13295848Y-15774484D02*
X13333943Y-15774484D01*
X13333943Y-15774484D02*
X13352990Y-15764960D01*
X13352990Y-15764960D02*
X13362514Y-15745913D01*
X13362514Y-15745913D02*
X13362514Y-15736389D01*
X13362514Y-15736389D02*
X13352990Y-15717341D01*
X13352990Y-15717341D02*
X13333943Y-15707817D01*
X13333943Y-15707817D02*
X13305371Y-15707817D01*
X13305371Y-15707817D02*
X13286324Y-15698294D01*
X13286324Y-15698294D02*
X13276800Y-15679246D01*
X13276800Y-15679246D02*
X13276800Y-15669722D01*
X13276800Y-15669722D02*
X13286324Y-15650674D01*
X13286324Y-15650674D02*
X13305371Y-15641151D01*
X13305371Y-15641151D02*
X13333943Y-15641151D01*
X13333943Y-15641151D02*
X13352990Y-15650674D01*
X13429181Y-15850674D02*
X13438705Y-15841151D01*
X13438705Y-15841151D02*
X13457752Y-15812579D01*
X13457752Y-15812579D02*
X13467276Y-15793532D01*
X13467276Y-15793532D02*
X13476800Y-15764960D01*
X13476800Y-15764960D02*
X13486324Y-15717341D01*
X13486324Y-15717341D02*
X13486324Y-15679246D01*
X13486324Y-15679246D02*
X13476800Y-15631627D01*
X13476800Y-15631627D02*
X13467276Y-15603055D01*
X13467276Y-15603055D02*
X13457752Y-15584008D01*
X13457752Y-15584008D02*
X13438705Y-15555436D01*
X13438705Y-15555436D02*
X13429181Y-15545913D01*
D12*
X8463642Y-15947000D02*
G75*
G03*
X8333642Y-15947000I-65000J0D01*
G01*
X8333642Y-15947000D02*
G75*
G03*
X8463642Y-15947000I65000J0D01*
G01*
D11*
X8829181Y-16038484D02*
X8714895Y-16038484D01*
X8772038Y-16038484D02*
X8772038Y-15838484D01*
X8772038Y-15838484D02*
X8752990Y-15867055D01*
X8752990Y-15867055D02*
X8733942Y-15886103D01*
X8733942Y-15886103D02*
X8714895Y-15895627D01*
X8914895Y-16019436D02*
X8924419Y-16028960D01*
X8924419Y-16028960D02*
X8914895Y-16038484D01*
X8914895Y-16038484D02*
X8905371Y-16028960D01*
X8905371Y-16028960D02*
X8914895Y-16019436D01*
X8914895Y-16019436D02*
X8914895Y-16038484D01*
X8991085Y-15838484D02*
X9114895Y-15838484D01*
X9114895Y-15838484D02*
X9048228Y-15914674D01*
X9048228Y-15914674D02*
X9076800Y-15914674D01*
X9076800Y-15914674D02*
X9095847Y-15924198D01*
X9095847Y-15924198D02*
X9105371Y-15933722D01*
X9105371Y-15933722D02*
X9114895Y-15952770D01*
X9114895Y-15952770D02*
X9114895Y-16000389D01*
X9114895Y-16000389D02*
X9105371Y-16019436D01*
X9105371Y-16019436D02*
X9095847Y-16028960D01*
X9095847Y-16028960D02*
X9076800Y-16038484D01*
X9076800Y-16038484D02*
X9019657Y-16038484D01*
X9019657Y-16038484D02*
X9000609Y-16028960D01*
X9000609Y-16028960D02*
X8991085Y-16019436D01*
X9238704Y-15838484D02*
X9257752Y-15838484D01*
X9257752Y-15838484D02*
X9276800Y-15848008D01*
X9276800Y-15848008D02*
X9286323Y-15857532D01*
X9286323Y-15857532D02*
X9295847Y-15876579D01*
X9295847Y-15876579D02*
X9305371Y-15914674D01*
X9305371Y-15914674D02*
X9305371Y-15962294D01*
X9305371Y-15962294D02*
X9295847Y-16000389D01*
X9295847Y-16000389D02*
X9286323Y-16019436D01*
X9286323Y-16019436D02*
X9276800Y-16028960D01*
X9276800Y-16028960D02*
X9257752Y-16038484D01*
X9257752Y-16038484D02*
X9238704Y-16038484D01*
X9238704Y-16038484D02*
X9219657Y-16028960D01*
X9219657Y-16028960D02*
X9210133Y-16019436D01*
X9210133Y-16019436D02*
X9200609Y-16000389D01*
X9200609Y-16000389D02*
X9191085Y-15962294D01*
X9191085Y-15962294D02*
X9191085Y-15914674D01*
X9191085Y-15914674D02*
X9200609Y-15876579D01*
X9200609Y-15876579D02*
X9210133Y-15857532D01*
X9210133Y-15857532D02*
X9219657Y-15848008D01*
X9219657Y-15848008D02*
X9238704Y-15838484D01*
X9429181Y-15838484D02*
X9448228Y-15838484D01*
X9448228Y-15838484D02*
X9467276Y-15848008D01*
X9467276Y-15848008D02*
X9476800Y-15857532D01*
X9476800Y-15857532D02*
X9486323Y-15876579D01*
X9486323Y-15876579D02*
X9495847Y-15914674D01*
X9495847Y-15914674D02*
X9495847Y-15962294D01*
X9495847Y-15962294D02*
X9486323Y-16000389D01*
X9486323Y-16000389D02*
X9476800Y-16019436D01*
X9476800Y-16019436D02*
X9467276Y-16028960D01*
X9467276Y-16028960D02*
X9448228Y-16038484D01*
X9448228Y-16038484D02*
X9429181Y-16038484D01*
X9429181Y-16038484D02*
X9410133Y-16028960D01*
X9410133Y-16028960D02*
X9400609Y-16019436D01*
X9400609Y-16019436D02*
X9391085Y-16000389D01*
X9391085Y-16000389D02*
X9381562Y-15962294D01*
X9381562Y-15962294D02*
X9381562Y-15914674D01*
X9381562Y-15914674D02*
X9391085Y-15876579D01*
X9391085Y-15876579D02*
X9400609Y-15857532D01*
X9400609Y-15857532D02*
X9410133Y-15848008D01*
X9410133Y-15848008D02*
X9429181Y-15838484D01*
X9581562Y-16038484D02*
X9581562Y-15905151D01*
X9581562Y-15924198D02*
X9591085Y-15914674D01*
X9591085Y-15914674D02*
X9610133Y-15905151D01*
X9610133Y-15905151D02*
X9638704Y-15905151D01*
X9638704Y-15905151D02*
X9657752Y-15914674D01*
X9657752Y-15914674D02*
X9667276Y-15933722D01*
X9667276Y-15933722D02*
X9667276Y-16038484D01*
X9667276Y-15933722D02*
X9676800Y-15914674D01*
X9676800Y-15914674D02*
X9695847Y-15905151D01*
X9695847Y-15905151D02*
X9724419Y-15905151D01*
X9724419Y-15905151D02*
X9743466Y-15914674D01*
X9743466Y-15914674D02*
X9752990Y-15933722D01*
X9752990Y-15933722D02*
X9752990Y-16038484D01*
X9848228Y-16038484D02*
X9848228Y-15905151D01*
X9848228Y-15924198D02*
X9857752Y-15914674D01*
X9857752Y-15914674D02*
X9876800Y-15905151D01*
X9876800Y-15905151D02*
X9905371Y-15905151D01*
X9905371Y-15905151D02*
X9924419Y-15914674D01*
X9924419Y-15914674D02*
X9933943Y-15933722D01*
X9933943Y-15933722D02*
X9933943Y-16038484D01*
X9933943Y-15933722D02*
X9943466Y-15914674D01*
X9943466Y-15914674D02*
X9962514Y-15905151D01*
X9962514Y-15905151D02*
X9991085Y-15905151D01*
X9991085Y-15905151D02*
X10010133Y-15914674D01*
X10010133Y-15914674D02*
X10019657Y-15933722D01*
X10019657Y-15933722D02*
X10019657Y-16038484D01*
X10410133Y-15828960D02*
X10238705Y-16086103D01*
X10667276Y-15838484D02*
X10686324Y-15838484D01*
X10686324Y-15838484D02*
X10705371Y-15848008D01*
X10705371Y-15848008D02*
X10714895Y-15857532D01*
X10714895Y-15857532D02*
X10724419Y-15876579D01*
X10724419Y-15876579D02*
X10733943Y-15914674D01*
X10733943Y-15914674D02*
X10733943Y-15962294D01*
X10733943Y-15962294D02*
X10724419Y-16000389D01*
X10724419Y-16000389D02*
X10714895Y-16019436D01*
X10714895Y-16019436D02*
X10705371Y-16028960D01*
X10705371Y-16028960D02*
X10686324Y-16038484D01*
X10686324Y-16038484D02*
X10667276Y-16038484D01*
X10667276Y-16038484D02*
X10648228Y-16028960D01*
X10648228Y-16028960D02*
X10638705Y-16019436D01*
X10638705Y-16019436D02*
X10629181Y-16000389D01*
X10629181Y-16000389D02*
X10619657Y-15962294D01*
X10619657Y-15962294D02*
X10619657Y-15914674D01*
X10619657Y-15914674D02*
X10629181Y-15876579D01*
X10629181Y-15876579D02*
X10638705Y-15857532D01*
X10638705Y-15857532D02*
X10648228Y-15848008D01*
X10648228Y-15848008D02*
X10667276Y-15838484D01*
X10819657Y-16019436D02*
X10829181Y-16028960D01*
X10829181Y-16028960D02*
X10819657Y-16038484D01*
X10819657Y-16038484D02*
X10810133Y-16028960D01*
X10810133Y-16028960D02*
X10819657Y-16019436D01*
X10819657Y-16019436D02*
X10819657Y-16038484D01*
X10952990Y-15838484D02*
X10972038Y-15838484D01*
X10972038Y-15838484D02*
X10991086Y-15848008D01*
X10991086Y-15848008D02*
X11000609Y-15857532D01*
X11000609Y-15857532D02*
X11010133Y-15876579D01*
X11010133Y-15876579D02*
X11019657Y-15914674D01*
X11019657Y-15914674D02*
X11019657Y-15962294D01*
X11019657Y-15962294D02*
X11010133Y-16000389D01*
X11010133Y-16000389D02*
X11000609Y-16019436D01*
X11000609Y-16019436D02*
X10991086Y-16028960D01*
X10991086Y-16028960D02*
X10972038Y-16038484D01*
X10972038Y-16038484D02*
X10952990Y-16038484D01*
X10952990Y-16038484D02*
X10933943Y-16028960D01*
X10933943Y-16028960D02*
X10924419Y-16019436D01*
X10924419Y-16019436D02*
X10914895Y-16000389D01*
X10914895Y-16000389D02*
X10905371Y-15962294D01*
X10905371Y-15962294D02*
X10905371Y-15914674D01*
X10905371Y-15914674D02*
X10914895Y-15876579D01*
X10914895Y-15876579D02*
X10924419Y-15857532D01*
X10924419Y-15857532D02*
X10933943Y-15848008D01*
X10933943Y-15848008D02*
X10952990Y-15838484D01*
X11200609Y-15838484D02*
X11105371Y-15838484D01*
X11105371Y-15838484D02*
X11095847Y-15933722D01*
X11095847Y-15933722D02*
X11105371Y-15924198D01*
X11105371Y-15924198D02*
X11124419Y-15914674D01*
X11124419Y-15914674D02*
X11172038Y-15914674D01*
X11172038Y-15914674D02*
X11191085Y-15924198D01*
X11191085Y-15924198D02*
X11200609Y-15933722D01*
X11200609Y-15933722D02*
X11210133Y-15952770D01*
X11210133Y-15952770D02*
X11210133Y-16000389D01*
X11210133Y-16000389D02*
X11200609Y-16019436D01*
X11200609Y-16019436D02*
X11191085Y-16028960D01*
X11191085Y-16028960D02*
X11172038Y-16038484D01*
X11172038Y-16038484D02*
X11124419Y-16038484D01*
X11124419Y-16038484D02*
X11105371Y-16028960D01*
X11105371Y-16028960D02*
X11095847Y-16019436D01*
X11400609Y-16038484D02*
X11286324Y-16038484D01*
X11343466Y-16038484D02*
X11343466Y-15838484D01*
X11343466Y-15838484D02*
X11324419Y-15867055D01*
X11324419Y-15867055D02*
X11305371Y-15886103D01*
X11305371Y-15886103D02*
X11286324Y-15895627D01*
X11476800Y-15857532D02*
X11486324Y-15848008D01*
X11486324Y-15848008D02*
X11505371Y-15838484D01*
X11505371Y-15838484D02*
X11552990Y-15838484D01*
X11552990Y-15838484D02*
X11572038Y-15848008D01*
X11572038Y-15848008D02*
X11581562Y-15857532D01*
X11581562Y-15857532D02*
X11591085Y-15876579D01*
X11591085Y-15876579D02*
X11591085Y-15895627D01*
X11591085Y-15895627D02*
X11581562Y-15924198D01*
X11581562Y-15924198D02*
X11467276Y-16038484D01*
X11467276Y-16038484D02*
X11591085Y-16038484D01*
X11667276Y-15838484D02*
X11667276Y-15876579D01*
X11743466Y-15838484D02*
X11743466Y-15876579D01*
X12038705Y-16114674D02*
X12029181Y-16105151D01*
X12029181Y-16105151D02*
X12010133Y-16076579D01*
X12010133Y-16076579D02*
X12000609Y-16057532D01*
X12000609Y-16057532D02*
X11991086Y-16028960D01*
X11991086Y-16028960D02*
X11981562Y-15981341D01*
X11981562Y-15981341D02*
X11981562Y-15943246D01*
X11981562Y-15943246D02*
X11991086Y-15895627D01*
X11991086Y-15895627D02*
X12000609Y-15867055D01*
X12000609Y-15867055D02*
X12010133Y-15848008D01*
X12010133Y-15848008D02*
X12029181Y-15819436D01*
X12029181Y-15819436D02*
X12038705Y-15809913D01*
X12105371Y-15857532D02*
X12114895Y-15848008D01*
X12114895Y-15848008D02*
X12133943Y-15838484D01*
X12133943Y-15838484D02*
X12181562Y-15838484D01*
X12181562Y-15838484D02*
X12200609Y-15848008D01*
X12200609Y-15848008D02*
X12210133Y-15857532D01*
X12210133Y-15857532D02*
X12219657Y-15876579D01*
X12219657Y-15876579D02*
X12219657Y-15895627D01*
X12219657Y-15895627D02*
X12210133Y-15924198D01*
X12210133Y-15924198D02*
X12095847Y-16038484D01*
X12095847Y-16038484D02*
X12219657Y-16038484D01*
X12391086Y-15905151D02*
X12391086Y-16038484D01*
X12343466Y-15828960D02*
X12295847Y-15971817D01*
X12295847Y-15971817D02*
X12419657Y-15971817D01*
X12648228Y-16038484D02*
X12648228Y-15838484D01*
X12733943Y-16038484D02*
X12733943Y-15933722D01*
X12733943Y-15933722D02*
X12724419Y-15914674D01*
X12724419Y-15914674D02*
X12705371Y-15905151D01*
X12705371Y-15905151D02*
X12676800Y-15905151D01*
X12676800Y-15905151D02*
X12657752Y-15914674D01*
X12657752Y-15914674D02*
X12648228Y-15924198D01*
X12857752Y-16038484D02*
X12838705Y-16028960D01*
X12838705Y-16028960D02*
X12829181Y-16019436D01*
X12829181Y-16019436D02*
X12819657Y-16000389D01*
X12819657Y-16000389D02*
X12819657Y-15943246D01*
X12819657Y-15943246D02*
X12829181Y-15924198D01*
X12829181Y-15924198D02*
X12838705Y-15914674D01*
X12838705Y-15914674D02*
X12857752Y-15905151D01*
X12857752Y-15905151D02*
X12886324Y-15905151D01*
X12886324Y-15905151D02*
X12905371Y-15914674D01*
X12905371Y-15914674D02*
X12914895Y-15924198D01*
X12914895Y-15924198D02*
X12924419Y-15943246D01*
X12924419Y-15943246D02*
X12924419Y-16000389D01*
X12924419Y-16000389D02*
X12914895Y-16019436D01*
X12914895Y-16019436D02*
X12905371Y-16028960D01*
X12905371Y-16028960D02*
X12886324Y-16038484D01*
X12886324Y-16038484D02*
X12857752Y-16038484D01*
X13038705Y-16038484D02*
X13019657Y-16028960D01*
X13019657Y-16028960D02*
X13010133Y-16009913D01*
X13010133Y-16009913D02*
X13010133Y-15838484D01*
X13191086Y-16028960D02*
X13172038Y-16038484D01*
X13172038Y-16038484D02*
X13133943Y-16038484D01*
X13133943Y-16038484D02*
X13114895Y-16028960D01*
X13114895Y-16028960D02*
X13105371Y-16009913D01*
X13105371Y-16009913D02*
X13105371Y-15933722D01*
X13105371Y-15933722D02*
X13114895Y-15914674D01*
X13114895Y-15914674D02*
X13133943Y-15905151D01*
X13133943Y-15905151D02*
X13172038Y-15905151D01*
X13172038Y-15905151D02*
X13191086Y-15914674D01*
X13191086Y-15914674D02*
X13200609Y-15933722D01*
X13200609Y-15933722D02*
X13200609Y-15952770D01*
X13200609Y-15952770D02*
X13105371Y-15971817D01*
X13276800Y-16028960D02*
X13295848Y-16038484D01*
X13295848Y-16038484D02*
X13333943Y-16038484D01*
X13333943Y-16038484D02*
X13352990Y-16028960D01*
X13352990Y-16028960D02*
X13362514Y-16009913D01*
X13362514Y-16009913D02*
X13362514Y-16000389D01*
X13362514Y-16000389D02*
X13352990Y-15981341D01*
X13352990Y-15981341D02*
X13333943Y-15971817D01*
X13333943Y-15971817D02*
X13305371Y-15971817D01*
X13305371Y-15971817D02*
X13286324Y-15962294D01*
X13286324Y-15962294D02*
X13276800Y-15943246D01*
X13276800Y-15943246D02*
X13276800Y-15933722D01*
X13276800Y-15933722D02*
X13286324Y-15914674D01*
X13286324Y-15914674D02*
X13305371Y-15905151D01*
X13305371Y-15905151D02*
X13333943Y-15905151D01*
X13333943Y-15905151D02*
X13352990Y-15914674D01*
X13429181Y-16114674D02*
X13438705Y-16105151D01*
X13438705Y-16105151D02*
X13457752Y-16076579D01*
X13457752Y-16076579D02*
X13467276Y-16057532D01*
X13467276Y-16057532D02*
X13476800Y-16028960D01*
X13476800Y-16028960D02*
X13486324Y-15981341D01*
X13486324Y-15981341D02*
X13486324Y-15943246D01*
X13486324Y-15943246D02*
X13476800Y-15895627D01*
X13476800Y-15895627D02*
X13467276Y-15867055D01*
X13467276Y-15867055D02*
X13457752Y-15848008D01*
X13457752Y-15848008D02*
X13438705Y-15819436D01*
X13438705Y-15819436D02*
X13429181Y-15809913D01*
X8363642Y-16111000D02*
X8363642Y-16311000D01*
X8263642Y-16211000D02*
X8463642Y-16211000D01*
X8705371Y-16102484D02*
X8829181Y-16102484D01*
X8829181Y-16102484D02*
X8762514Y-16178674D01*
X8762514Y-16178674D02*
X8791085Y-16178674D01*
X8791085Y-16178674D02*
X8810133Y-16188198D01*
X8810133Y-16188198D02*
X8819657Y-16197722D01*
X8819657Y-16197722D02*
X8829181Y-16216770D01*
X8829181Y-16216770D02*
X8829181Y-16264389D01*
X8829181Y-16264389D02*
X8819657Y-16283436D01*
X8819657Y-16283436D02*
X8810133Y-16292960D01*
X8810133Y-16292960D02*
X8791085Y-16302484D01*
X8791085Y-16302484D02*
X8733942Y-16302484D01*
X8733942Y-16302484D02*
X8714895Y-16292960D01*
X8714895Y-16292960D02*
X8705371Y-16283436D01*
X8914895Y-16283436D02*
X8924419Y-16292960D01*
X8924419Y-16292960D02*
X8914895Y-16302484D01*
X8914895Y-16302484D02*
X8905371Y-16292960D01*
X8905371Y-16292960D02*
X8914895Y-16283436D01*
X8914895Y-16283436D02*
X8914895Y-16302484D01*
X9048228Y-16102484D02*
X9067276Y-16102484D01*
X9067276Y-16102484D02*
X9086323Y-16112008D01*
X9086323Y-16112008D02*
X9095847Y-16121532D01*
X9095847Y-16121532D02*
X9105371Y-16140579D01*
X9105371Y-16140579D02*
X9114895Y-16178674D01*
X9114895Y-16178674D02*
X9114895Y-16226294D01*
X9114895Y-16226294D02*
X9105371Y-16264389D01*
X9105371Y-16264389D02*
X9095847Y-16283436D01*
X9095847Y-16283436D02*
X9086323Y-16292960D01*
X9086323Y-16292960D02*
X9067276Y-16302484D01*
X9067276Y-16302484D02*
X9048228Y-16302484D01*
X9048228Y-16302484D02*
X9029181Y-16292960D01*
X9029181Y-16292960D02*
X9019657Y-16283436D01*
X9019657Y-16283436D02*
X9010133Y-16264389D01*
X9010133Y-16264389D02*
X9000609Y-16226294D01*
X9000609Y-16226294D02*
X9000609Y-16178674D01*
X9000609Y-16178674D02*
X9010133Y-16140579D01*
X9010133Y-16140579D02*
X9019657Y-16121532D01*
X9019657Y-16121532D02*
X9029181Y-16112008D01*
X9029181Y-16112008D02*
X9048228Y-16102484D01*
X9238704Y-16102484D02*
X9257752Y-16102484D01*
X9257752Y-16102484D02*
X9276800Y-16112008D01*
X9276800Y-16112008D02*
X9286323Y-16121532D01*
X9286323Y-16121532D02*
X9295847Y-16140579D01*
X9295847Y-16140579D02*
X9305371Y-16178674D01*
X9305371Y-16178674D02*
X9305371Y-16226294D01*
X9305371Y-16226294D02*
X9295847Y-16264389D01*
X9295847Y-16264389D02*
X9286323Y-16283436D01*
X9286323Y-16283436D02*
X9276800Y-16292960D01*
X9276800Y-16292960D02*
X9257752Y-16302484D01*
X9257752Y-16302484D02*
X9238704Y-16302484D01*
X9238704Y-16302484D02*
X9219657Y-16292960D01*
X9219657Y-16292960D02*
X9210133Y-16283436D01*
X9210133Y-16283436D02*
X9200609Y-16264389D01*
X9200609Y-16264389D02*
X9191085Y-16226294D01*
X9191085Y-16226294D02*
X9191085Y-16178674D01*
X9191085Y-16178674D02*
X9200609Y-16140579D01*
X9200609Y-16140579D02*
X9210133Y-16121532D01*
X9210133Y-16121532D02*
X9219657Y-16112008D01*
X9219657Y-16112008D02*
X9238704Y-16102484D01*
X9429181Y-16102484D02*
X9448228Y-16102484D01*
X9448228Y-16102484D02*
X9467276Y-16112008D01*
X9467276Y-16112008D02*
X9476800Y-16121532D01*
X9476800Y-16121532D02*
X9486323Y-16140579D01*
X9486323Y-16140579D02*
X9495847Y-16178674D01*
X9495847Y-16178674D02*
X9495847Y-16226294D01*
X9495847Y-16226294D02*
X9486323Y-16264389D01*
X9486323Y-16264389D02*
X9476800Y-16283436D01*
X9476800Y-16283436D02*
X9467276Y-16292960D01*
X9467276Y-16292960D02*
X9448228Y-16302484D01*
X9448228Y-16302484D02*
X9429181Y-16302484D01*
X9429181Y-16302484D02*
X9410133Y-16292960D01*
X9410133Y-16292960D02*
X9400609Y-16283436D01*
X9400609Y-16283436D02*
X9391085Y-16264389D01*
X9391085Y-16264389D02*
X9381562Y-16226294D01*
X9381562Y-16226294D02*
X9381562Y-16178674D01*
X9381562Y-16178674D02*
X9391085Y-16140579D01*
X9391085Y-16140579D02*
X9400609Y-16121532D01*
X9400609Y-16121532D02*
X9410133Y-16112008D01*
X9410133Y-16112008D02*
X9429181Y-16102484D01*
X9581562Y-16302484D02*
X9581562Y-16169151D01*
X9581562Y-16188198D02*
X9591085Y-16178674D01*
X9591085Y-16178674D02*
X9610133Y-16169151D01*
X9610133Y-16169151D02*
X9638704Y-16169151D01*
X9638704Y-16169151D02*
X9657752Y-16178674D01*
X9657752Y-16178674D02*
X9667276Y-16197722D01*
X9667276Y-16197722D02*
X9667276Y-16302484D01*
X9667276Y-16197722D02*
X9676800Y-16178674D01*
X9676800Y-16178674D02*
X9695847Y-16169151D01*
X9695847Y-16169151D02*
X9724419Y-16169151D01*
X9724419Y-16169151D02*
X9743466Y-16178674D01*
X9743466Y-16178674D02*
X9752990Y-16197722D01*
X9752990Y-16197722D02*
X9752990Y-16302484D01*
X9848228Y-16302484D02*
X9848228Y-16169151D01*
X9848228Y-16188198D02*
X9857752Y-16178674D01*
X9857752Y-16178674D02*
X9876800Y-16169151D01*
X9876800Y-16169151D02*
X9905371Y-16169151D01*
X9905371Y-16169151D02*
X9924419Y-16178674D01*
X9924419Y-16178674D02*
X9933943Y-16197722D01*
X9933943Y-16197722D02*
X9933943Y-16302484D01*
X9933943Y-16197722D02*
X9943466Y-16178674D01*
X9943466Y-16178674D02*
X9962514Y-16169151D01*
X9962514Y-16169151D02*
X9991085Y-16169151D01*
X9991085Y-16169151D02*
X10010133Y-16178674D01*
X10010133Y-16178674D02*
X10019657Y-16197722D01*
X10019657Y-16197722D02*
X10019657Y-16302484D01*
X10410133Y-16092960D02*
X10238705Y-16350103D01*
X10667276Y-16102484D02*
X10686324Y-16102484D01*
X10686324Y-16102484D02*
X10705371Y-16112008D01*
X10705371Y-16112008D02*
X10714895Y-16121532D01*
X10714895Y-16121532D02*
X10724419Y-16140579D01*
X10724419Y-16140579D02*
X10733943Y-16178674D01*
X10733943Y-16178674D02*
X10733943Y-16226294D01*
X10733943Y-16226294D02*
X10724419Y-16264389D01*
X10724419Y-16264389D02*
X10714895Y-16283436D01*
X10714895Y-16283436D02*
X10705371Y-16292960D01*
X10705371Y-16292960D02*
X10686324Y-16302484D01*
X10686324Y-16302484D02*
X10667276Y-16302484D01*
X10667276Y-16302484D02*
X10648228Y-16292960D01*
X10648228Y-16292960D02*
X10638705Y-16283436D01*
X10638705Y-16283436D02*
X10629181Y-16264389D01*
X10629181Y-16264389D02*
X10619657Y-16226294D01*
X10619657Y-16226294D02*
X10619657Y-16178674D01*
X10619657Y-16178674D02*
X10629181Y-16140579D01*
X10629181Y-16140579D02*
X10638705Y-16121532D01*
X10638705Y-16121532D02*
X10648228Y-16112008D01*
X10648228Y-16112008D02*
X10667276Y-16102484D01*
X10819657Y-16283436D02*
X10829181Y-16292960D01*
X10829181Y-16292960D02*
X10819657Y-16302484D01*
X10819657Y-16302484D02*
X10810133Y-16292960D01*
X10810133Y-16292960D02*
X10819657Y-16283436D01*
X10819657Y-16283436D02*
X10819657Y-16302484D01*
X11019657Y-16302484D02*
X10905371Y-16302484D01*
X10962514Y-16302484D02*
X10962514Y-16102484D01*
X10962514Y-16102484D02*
X10943466Y-16131055D01*
X10943466Y-16131055D02*
X10924419Y-16150103D01*
X10924419Y-16150103D02*
X10905371Y-16159627D01*
X11210133Y-16302484D02*
X11095847Y-16302484D01*
X11152990Y-16302484D02*
X11152990Y-16102484D01*
X11152990Y-16102484D02*
X11133943Y-16131055D01*
X11133943Y-16131055D02*
X11114895Y-16150103D01*
X11114895Y-16150103D02*
X11095847Y-16159627D01*
X11324419Y-16188198D02*
X11305371Y-16178674D01*
X11305371Y-16178674D02*
X11295847Y-16169151D01*
X11295847Y-16169151D02*
X11286324Y-16150103D01*
X11286324Y-16150103D02*
X11286324Y-16140579D01*
X11286324Y-16140579D02*
X11295847Y-16121532D01*
X11295847Y-16121532D02*
X11305371Y-16112008D01*
X11305371Y-16112008D02*
X11324419Y-16102484D01*
X11324419Y-16102484D02*
X11362514Y-16102484D01*
X11362514Y-16102484D02*
X11381562Y-16112008D01*
X11381562Y-16112008D02*
X11391085Y-16121532D01*
X11391085Y-16121532D02*
X11400609Y-16140579D01*
X11400609Y-16140579D02*
X11400609Y-16150103D01*
X11400609Y-16150103D02*
X11391085Y-16169151D01*
X11391085Y-16169151D02*
X11381562Y-16178674D01*
X11381562Y-16178674D02*
X11362514Y-16188198D01*
X11362514Y-16188198D02*
X11324419Y-16188198D01*
X11324419Y-16188198D02*
X11305371Y-16197722D01*
X11305371Y-16197722D02*
X11295847Y-16207246D01*
X11295847Y-16207246D02*
X11286324Y-16226294D01*
X11286324Y-16226294D02*
X11286324Y-16264389D01*
X11286324Y-16264389D02*
X11295847Y-16283436D01*
X11295847Y-16283436D02*
X11305371Y-16292960D01*
X11305371Y-16292960D02*
X11324419Y-16302484D01*
X11324419Y-16302484D02*
X11362514Y-16302484D01*
X11362514Y-16302484D02*
X11381562Y-16292960D01*
X11381562Y-16292960D02*
X11391085Y-16283436D01*
X11391085Y-16283436D02*
X11400609Y-16264389D01*
X11400609Y-16264389D02*
X11400609Y-16226294D01*
X11400609Y-16226294D02*
X11391085Y-16207246D01*
X11391085Y-16207246D02*
X11381562Y-16197722D01*
X11381562Y-16197722D02*
X11362514Y-16188198D01*
X11591085Y-16302484D02*
X11476800Y-16302484D01*
X11533943Y-16302484D02*
X11533943Y-16102484D01*
X11533943Y-16102484D02*
X11514895Y-16131055D01*
X11514895Y-16131055D02*
X11495847Y-16150103D01*
X11495847Y-16150103D02*
X11476800Y-16159627D01*
X11667276Y-16102484D02*
X11667276Y-16140579D01*
X11743466Y-16102484D02*
X11743466Y-16140579D01*
X12038705Y-16378674D02*
X12029181Y-16369151D01*
X12029181Y-16369151D02*
X12010133Y-16340579D01*
X12010133Y-16340579D02*
X12000609Y-16321532D01*
X12000609Y-16321532D02*
X11991086Y-16292960D01*
X11991086Y-16292960D02*
X11981562Y-16245341D01*
X11981562Y-16245341D02*
X11981562Y-16207246D01*
X11981562Y-16207246D02*
X11991086Y-16159627D01*
X11991086Y-16159627D02*
X12000609Y-16131055D01*
X12000609Y-16131055D02*
X12010133Y-16112008D01*
X12010133Y-16112008D02*
X12029181Y-16083436D01*
X12029181Y-16083436D02*
X12038705Y-16073913D01*
X12200609Y-16169151D02*
X12200609Y-16302484D01*
X12152990Y-16092960D02*
X12105371Y-16235817D01*
X12105371Y-16235817D02*
X12229181Y-16235817D01*
X12457752Y-16302484D02*
X12457752Y-16102484D01*
X12543467Y-16302484D02*
X12543467Y-16197722D01*
X12543467Y-16197722D02*
X12533943Y-16178674D01*
X12533943Y-16178674D02*
X12514895Y-16169151D01*
X12514895Y-16169151D02*
X12486324Y-16169151D01*
X12486324Y-16169151D02*
X12467276Y-16178674D01*
X12467276Y-16178674D02*
X12457752Y-16188198D01*
X12667276Y-16302484D02*
X12648228Y-16292960D01*
X12648228Y-16292960D02*
X12638705Y-16283436D01*
X12638705Y-16283436D02*
X12629181Y-16264389D01*
X12629181Y-16264389D02*
X12629181Y-16207246D01*
X12629181Y-16207246D02*
X12638705Y-16188198D01*
X12638705Y-16188198D02*
X12648228Y-16178674D01*
X12648228Y-16178674D02*
X12667276Y-16169151D01*
X12667276Y-16169151D02*
X12695848Y-16169151D01*
X12695848Y-16169151D02*
X12714895Y-16178674D01*
X12714895Y-16178674D02*
X12724419Y-16188198D01*
X12724419Y-16188198D02*
X12733943Y-16207246D01*
X12733943Y-16207246D02*
X12733943Y-16264389D01*
X12733943Y-16264389D02*
X12724419Y-16283436D01*
X12724419Y-16283436D02*
X12714895Y-16292960D01*
X12714895Y-16292960D02*
X12695848Y-16302484D01*
X12695848Y-16302484D02*
X12667276Y-16302484D01*
X12848228Y-16302484D02*
X12829181Y-16292960D01*
X12829181Y-16292960D02*
X12819657Y-16273913D01*
X12819657Y-16273913D02*
X12819657Y-16102484D01*
X13000609Y-16292960D02*
X12981562Y-16302484D01*
X12981562Y-16302484D02*
X12943467Y-16302484D01*
X12943467Y-16302484D02*
X12924419Y-16292960D01*
X12924419Y-16292960D02*
X12914895Y-16273913D01*
X12914895Y-16273913D02*
X12914895Y-16197722D01*
X12914895Y-16197722D02*
X12924419Y-16178674D01*
X12924419Y-16178674D02*
X12943467Y-16169151D01*
X12943467Y-16169151D02*
X12981562Y-16169151D01*
X12981562Y-16169151D02*
X13000609Y-16178674D01*
X13000609Y-16178674D02*
X13010133Y-16197722D01*
X13010133Y-16197722D02*
X13010133Y-16216770D01*
X13010133Y-16216770D02*
X12914895Y-16235817D01*
X13086324Y-16292960D02*
X13105371Y-16302484D01*
X13105371Y-16302484D02*
X13143467Y-16302484D01*
X13143467Y-16302484D02*
X13162514Y-16292960D01*
X13162514Y-16292960D02*
X13172038Y-16273913D01*
X13172038Y-16273913D02*
X13172038Y-16264389D01*
X13172038Y-16264389D02*
X13162514Y-16245341D01*
X13162514Y-16245341D02*
X13143467Y-16235817D01*
X13143467Y-16235817D02*
X13114895Y-16235817D01*
X13114895Y-16235817D02*
X13095848Y-16226294D01*
X13095848Y-16226294D02*
X13086324Y-16207246D01*
X13086324Y-16207246D02*
X13086324Y-16197722D01*
X13086324Y-16197722D02*
X13095848Y-16178674D01*
X13095848Y-16178674D02*
X13114895Y-16169151D01*
X13114895Y-16169151D02*
X13143467Y-16169151D01*
X13143467Y-16169151D02*
X13162514Y-16178674D01*
X13238705Y-16378674D02*
X13248229Y-16369151D01*
X13248229Y-16369151D02*
X13267276Y-16340579D01*
X13267276Y-16340579D02*
X13276800Y-16321532D01*
X13276800Y-16321532D02*
X13286324Y-16292960D01*
X13286324Y-16292960D02*
X13295848Y-16245341D01*
X13295848Y-16245341D02*
X13295848Y-16207246D01*
X13295848Y-16207246D02*
X13286324Y-16159627D01*
X13286324Y-16159627D02*
X13276800Y-16131055D01*
X13276800Y-16131055D02*
X13267276Y-16112008D01*
X13267276Y-16112008D02*
X13248229Y-16083436D01*
X13248229Y-16083436D02*
X13238705Y-16073913D01*
M02*
