G04 #@! TF.GenerationSoftware,KiCad,Pcbnew,7.0.10*
G04 #@! TF.CreationDate,2024-02-16T21:01:07+01:00*
G04 #@! TF.ProjectId,minigame,6d696e69-6761-46d6-952e-6b696361645f,1.0*
G04 #@! TF.SameCoordinates,Original*
G04 #@! TF.FileFunction,Soldermask,Bot*
G04 #@! TF.FilePolarity,Negative*
%FSLAX46Y46*%
G04 Gerber Fmt 4.6, Leading zero omitted, Abs format (unit mm)*
G04 Created by KiCad (PCBNEW 7.0.10) date 2024-02-16 21:01:07*
%MOMM*%
%LPD*%
G01*
G04 APERTURE LIST*
%ADD10C,3.400000*%
%ADD11C,6.000000*%
%ADD12O,1.850000X3.048000*%
%ADD13C,1.700000*%
%ADD14O,1.700000X1.700000*%
%ADD15O,3.048000X1.850000*%
%ADD16R,1.600000X1.600000*%
%ADD17O,1.600000X1.600000*%
G04 APERTURE END LIST*
D10*
X88026003Y-147030405D03*
D11*
X88026003Y-147030405D03*
D12*
X150662000Y-143400000D03*
X150662000Y-130900000D03*
X155662000Y-143400000D03*
X155662000Y-130900000D03*
D10*
X88014755Y-53691093D03*
D11*
X88014755Y-53691093D03*
D12*
X150662000Y-121556000D03*
X150662000Y-109056000D03*
X155662000Y-121556000D03*
X155662000Y-109056000D03*
D10*
X181347229Y-147030967D03*
D11*
X181347229Y-147030967D03*
D12*
X166664000Y-132732000D03*
X166664000Y-120232000D03*
X171664000Y-132732000D03*
X171664000Y-120232000D03*
D13*
X99060000Y-76200000D03*
D14*
X99060000Y-78740000D03*
X99060000Y-81280000D03*
X99060000Y-83820000D03*
D15*
X95360000Y-116880000D03*
X107860000Y-116880000D03*
X95360000Y-121880000D03*
X107860000Y-121880000D03*
X95360000Y-134660000D03*
X107860000Y-134660000D03*
X95360000Y-139660000D03*
X107860000Y-139660000D03*
D12*
X134914000Y-132986000D03*
X134914000Y-120486000D03*
X139914000Y-132986000D03*
X139914000Y-120486000D03*
D16*
X119380000Y-101600000D03*
D17*
X121920000Y-101600000D03*
X124460000Y-101600000D03*
X127000000Y-101600000D03*
X129540000Y-101600000D03*
X132080000Y-101600000D03*
X134620000Y-101600000D03*
X137160000Y-101600000D03*
X142240000Y-101600000D03*
X144780000Y-101600000D03*
X147320000Y-101600000D03*
X149860000Y-101600000D03*
X152400000Y-101600000D03*
X154940000Y-101600000D03*
X154940000Y-53340000D03*
X152400000Y-53340000D03*
X149860000Y-53340000D03*
X147320000Y-53340000D03*
X144780000Y-53340000D03*
X142240000Y-53340000D03*
X139700000Y-53340000D03*
X137160000Y-53340000D03*
X133100000Y-53340000D03*
X130560000Y-53340000D03*
X128020000Y-53340000D03*
X125480000Y-53340000D03*
X122940000Y-53340000D03*
X120400000Y-53340000D03*
X117860000Y-53340000D03*
X115320000Y-53340000D03*
X112780000Y-53340000D03*
X110240000Y-53340000D03*
D10*
X181367708Y-53718198D03*
D11*
X181367708Y-53718198D03*
M02*
