G04 #@! TF.GenerationSoftware,KiCad,Pcbnew,7.0.10*
G04 #@! TF.CreationDate,2024-02-17T15:34:16+01:00*
G04 #@! TF.ProjectId,minigame,6d696e69-6761-46d6-952e-6b696361645f,1.0*
G04 #@! TF.SameCoordinates,Original*
G04 #@! TF.FileFunction,Copper,L1,Top*
G04 #@! TF.FilePolarity,Positive*
%FSLAX46Y46*%
G04 Gerber Fmt 4.6, Leading zero omitted, Abs format (unit mm)*
G04 Created by KiCad (PCBNEW 7.0.10) date 2024-02-17 15:34:16*
%MOMM*%
%LPD*%
G01*
G04 APERTURE LIST*
G04 #@! TA.AperFunction,ComponentPad*
%ADD10C,3.400000*%
G04 #@! TD*
G04 #@! TA.AperFunction,ConnectorPad*
%ADD11C,6.000000*%
G04 #@! TD*
G04 #@! TA.AperFunction,ComponentPad*
%ADD12O,1.850000X3.048000*%
G04 #@! TD*
G04 #@! TA.AperFunction,ComponentPad*
%ADD13O,1.700000X1.700000*%
G04 #@! TD*
G04 #@! TA.AperFunction,ComponentPad*
%ADD14C,1.700000*%
G04 #@! TD*
G04 #@! TA.AperFunction,ComponentPad*
%ADD15O,3.048000X1.850000*%
G04 #@! TD*
G04 #@! TA.AperFunction,ComponentPad*
%ADD16R,1.600000X1.600000*%
G04 #@! TD*
G04 #@! TA.AperFunction,ComponentPad*
%ADD17O,1.600000X1.600000*%
G04 #@! TD*
G04 #@! TA.AperFunction,Conductor*
%ADD18C,0.500000*%
G04 #@! TD*
G04 #@! TA.AperFunction,Conductor*
%ADD19C,1.000000*%
G04 #@! TD*
G04 APERTURE END LIST*
D10*
X88026003Y-147030405D03*
D11*
X88026003Y-147030405D03*
D12*
X150662000Y-143400000D03*
X150662000Y-130900000D03*
X155662000Y-143400000D03*
X155662000Y-130900000D03*
D10*
X88014755Y-53691093D03*
D11*
X88014755Y-53691093D03*
D12*
X150662000Y-121556000D03*
X150662000Y-109056000D03*
X155662000Y-121556000D03*
X155662000Y-109056000D03*
D10*
X181347229Y-147030967D03*
D11*
X181347229Y-147030967D03*
D12*
X166664000Y-132732000D03*
X166664000Y-120232000D03*
X171664000Y-132732000D03*
X171664000Y-120232000D03*
D13*
X91850000Y-83820000D03*
X91850000Y-81280000D03*
X91850000Y-78740000D03*
D14*
X91850000Y-76200000D03*
D15*
X95360000Y-116880000D03*
X107860000Y-116880000D03*
X95360000Y-121880000D03*
X107860000Y-121880000D03*
X95360000Y-134660000D03*
X107860000Y-134660000D03*
X95360000Y-139660000D03*
X107860000Y-139660000D03*
D12*
X134914000Y-132986000D03*
X134914000Y-120486000D03*
X139914000Y-132986000D03*
X139914000Y-120486000D03*
D16*
X119380000Y-101600000D03*
D17*
X121920000Y-101600000D03*
X124460000Y-101600000D03*
X127000000Y-101600000D03*
X129540000Y-101600000D03*
X132080000Y-101600000D03*
X134620000Y-101600000D03*
X137160000Y-101600000D03*
X142240000Y-101600000D03*
X144780000Y-101600000D03*
X147320000Y-101600000D03*
X149860000Y-101600000D03*
X152400000Y-101600000D03*
X154940000Y-101600000D03*
X154940000Y-53340000D03*
X152400000Y-53340000D03*
X149860000Y-53340000D03*
X147320000Y-53340000D03*
X144780000Y-53340000D03*
X142240000Y-53340000D03*
X139700000Y-53340000D03*
X137160000Y-53340000D03*
X133100000Y-53340000D03*
X130560000Y-53340000D03*
X128020000Y-53340000D03*
X125480000Y-53340000D03*
X122940000Y-53340000D03*
X120400000Y-53340000D03*
X117860000Y-53340000D03*
X115320000Y-53340000D03*
X112780000Y-53340000D03*
X110240000Y-53340000D03*
D10*
X181367708Y-53718198D03*
D11*
X181367708Y-53718198D03*
D18*
X154940000Y-101600000D02*
X152400000Y-104140000D01*
X111506000Y-89154000D02*
X106172000Y-83820000D01*
X152400000Y-104140000D02*
X115824000Y-104140000D01*
X115824000Y-104140000D02*
X111506000Y-99822000D01*
X111506000Y-99822000D02*
X111506000Y-89154000D01*
X106172000Y-83820000D02*
X91850000Y-83820000D01*
X152400000Y-101600000D02*
X150622000Y-103378000D01*
X116840000Y-103378000D02*
X113284000Y-99822000D01*
X113284000Y-99822000D02*
X113284000Y-87884000D01*
X150622000Y-103378000D02*
X116840000Y-103378000D01*
X113284000Y-87884000D02*
X106680000Y-81280000D01*
X106680000Y-81280000D02*
X91850000Y-81280000D01*
D19*
X129540000Y-101600000D02*
X106680000Y-78740000D01*
X106680000Y-78740000D02*
X91850000Y-78740000D01*
D18*
X149860000Y-85344000D02*
X171664000Y-107148000D01*
X171664000Y-120232000D02*
X171664000Y-132732000D01*
X171664000Y-107148000D02*
X171664000Y-120232000D01*
X149860000Y-53340000D02*
X149860000Y-85344000D01*
X147320000Y-85598000D02*
X159258000Y-97536000D01*
X155662000Y-109056000D02*
X155662000Y-121556000D01*
X159258000Y-97536000D02*
X159258000Y-105460000D01*
X147320000Y-53340000D02*
X147320000Y-85598000D01*
X159258000Y-105460000D02*
X155662000Y-109056000D01*
X154940000Y-106172000D02*
X145288000Y-106172000D01*
X144780000Y-85598000D02*
X157988000Y-98806000D01*
X144780000Y-124460000D02*
X147320000Y-127000000D01*
X155662000Y-130900000D02*
X155662000Y-143400000D01*
X144780000Y-118364000D02*
X144780000Y-124460000D01*
X147320000Y-127000000D02*
X151762000Y-127000000D01*
X145288000Y-106172000D02*
X142494000Y-108966000D01*
X151762000Y-127000000D02*
X155662000Y-130900000D01*
X142494000Y-108966000D02*
X142494000Y-116078000D01*
X144780000Y-53340000D02*
X144780000Y-85598000D01*
X157988000Y-98806000D02*
X157988000Y-103124000D01*
X157988000Y-103124000D02*
X154940000Y-106172000D01*
X142494000Y-116078000D02*
X144780000Y-118364000D01*
X139914000Y-110022000D02*
X139914000Y-120486000D01*
X153924000Y-105156000D02*
X144780000Y-105156000D01*
X142240000Y-85852000D02*
X156718000Y-100330000D01*
X156718000Y-100330000D02*
X156718000Y-102362000D01*
X156718000Y-102362000D02*
X153924000Y-105156000D01*
X144780000Y-105156000D02*
X139914000Y-110022000D01*
X142240000Y-53340000D02*
X142240000Y-85852000D01*
X139914000Y-120486000D02*
X139914000Y-132986000D01*
X111252000Y-136268000D02*
X107860000Y-139660000D01*
X139700000Y-53340000D02*
X132080000Y-60960000D01*
X89154000Y-97536000D02*
X99060000Y-107442000D01*
X107442000Y-107442000D02*
X111252000Y-111252000D01*
X89154000Y-66548000D02*
X89154000Y-97536000D01*
X94742000Y-60960000D02*
X89154000Y-66548000D01*
X111252000Y-111252000D02*
X111252000Y-136268000D01*
X99060000Y-107442000D02*
X107442000Y-107442000D01*
X107860000Y-139660000D02*
X95360000Y-139660000D01*
X132080000Y-60960000D02*
X94742000Y-60960000D01*
X131318000Y-59182000D02*
X94488000Y-59182000D01*
X137160000Y-53340000D02*
X131318000Y-59182000D01*
X87630000Y-117094000D02*
X92416000Y-121880000D01*
X95360000Y-121880000D02*
X107860000Y-121880000D01*
X87630000Y-66040000D02*
X87630000Y-117094000D01*
X92416000Y-121880000D02*
X95360000Y-121880000D01*
X94488000Y-59182000D02*
X87630000Y-66040000D01*
M02*
